<?xml version="1.0" encoding="UTF-8" standalone="no"?>
<!-- Created with Inkscape (http://www.inkscape.org/) -->

<svg
   width="2.5711544mm"
   height="3.4914317mm"
   viewBox="0 0 2.5711542 3.4914317"
   version="1.1"
   id="svg1"
   xml:space="preserve"
   sodipodi:docname="arrows-light.svg"
   inkscape:version="1.4 (e7c3feb1, 2024-10-09)"
   xmlns:inkscape="http://www.inkscape.org/namespaces/inkscape"
   xmlns:sodipodi="http://sodipodi.sourceforge.net/DTD/sodipodi-0.dtd"
   xmlns="http://www.w3.org/2000/svg"
   xmlns:svg="http://www.w3.org/2000/svg"><sodipodi:namedview
     id="namedview1"
     pagecolor="#505050"
     bordercolor="#eeeeee"
     borderopacity="1"
     inkscape:showpageshadow="0"
     inkscape:pageopacity="0"
     inkscape:pagecheckerboard="0"
     inkscape:deskcolor="#d1d1d1"
     inkscape:document-units="mm"
     inkscape:zoom="22.324155"
     inkscape:cx="6.1368504"
     inkscape:cy="7.2567136"
     inkscape:window-width="1920"
     inkscape:window-height="982"
     inkscape:window-x="0"
     inkscape:window-y="238"
     inkscape:window-maximized="0"
     inkscape:current-layer="svg1" /><defs
     id="defs1" /><g
     id="g8"
     transform="translate(0.14119226,-0.15774391)"><g
       id="g2"
       transform="translate(0,-0.00335245)"><path
         style="color:#ffffff;fill:#ffffff;stroke-width:1.06375;stroke-linecap:round;-inkscape-stroke:none;fill-opacity:1"
         d="M 1.0835068,3.4935797 0.20068546,2.5832007 C 0.14593177,2.5267256 0.0519125,2.4316536 0.04011099,2.3559597 0.03138532,2.2995907 0.11177072,2.2529001 0.19141442,2.2529001 H 0.38666259 A 0.33489788,0.32656256 0 0 1 0.63006565,2.3551089 L 1.0976207,2.8375308 a 0.06756367,0.06588207 0 0 0 0.098164,0 l 0.467555,-0.482422 A 0.33489788,0.32656256 0 0 1 1.9067428,2.2529 h 0.1963389 c 0.07973,0 0.1660388,0.065728 0.1421958,0.1386676 -0.017778,0.054454 -0.097838,0.1352004 -0.1525576,0.1916543 l -0.8828434,0.910379 a 0.08699539,0.08483014 0 0 1 -0.1264133,0 z"
         id="path7" /><path
         style="color:#ffffff;fill:#ffffff;stroke-width:1.06375;stroke-linecap:round;-inkscape-stroke:none;fill-opacity:1"
         d="M 1.0835067,0.3200448 0.20068539,1.2304239 C 0.14593176,1.2868997 0.05191243,1.3819711 0.04011092,1.4576651 0.03138326,1.5140331 0.11177067,1.5607245 0.19141435,1.5607245 H 0.38666252 A 0.33489788,0.32656256 0 0 0 0.63006558,1.4585158 L 1.0976206,0.97609364 a 0.06756367,0.06588207 0 0 1 0.098164,0 L 1.66334,1.4585159 a 0.33489788,0.32656256 0 0 0 0.243403,0.1022087 h 0.1963389 c 0.07973,0 0.1660389,-0.065728 0.1421959,-0.1386677 C 2.2274992,1.3676022 2.1474409,1.2868566 2.0927198,1.2304026 L 1.2098764,0.32002353 a 0.08699539,0.08483014 0 0 0 -0.1264133,0 z"
         id="path8" /></g></g></svg>
