<?xml version="1.0" encoding="UTF-8" standalone="no"?>
<!-- Created using Krita: https://krita.org -->

<svg
   width="14"
   height="14"
   viewBox="0 0 10.5 10.5"
   version="1.1"
   id="svg1"
   sodipodi:docname="checkmark-light.svg"
   inkscape:version="1.3.2 (091e20e, 2023-11-25)"
   xmlns:inkscape="http://www.inkscape.org/namespaces/inkscape"
   xmlns:sodipodi="http://sodipodi.sourceforge.net/DTD/sodipodi-0.dtd"
   xmlns="http://www.w3.org/2000/svg"
   xmlns:svg="http://www.w3.org/2000/svg">
  <sodipodi:namedview
     id="namedview1"
     pagecolor="#505050"
     bordercolor="#eeeeee"
     borderopacity="1"
     inkscape:showpageshadow="0"
     inkscape:pageopacity="0"
     inkscape:pagecheckerboard="0"
     inkscape:deskcolor="#d1d1d1"
     inkscape:zoom="16.857143"
     inkscape:cx="15.097457"
     inkscape:cy="1.720339"
     inkscape:window-width="1920"
     inkscape:window-height="982"
     inkscape:window-x="0"
     inkscape:window-y="238"
     inkscape:window-maximized="0"
     inkscape:current-layer="g1" />
  <defs
     id="defs1" />
  <g
     id="g1">
    <path
       id="shape0"
       stroke-opacity="0"
       stroke="#000000"
       stroke-width="0"
       d="M 2.4135824,9.0761101 C 2.3452735,8.9181457 2.1983338,8.5673896 2.1135748,8.3811464 2.0371821,8.2132684 1.9023804,7.9462082 1.8215895,7.7803734 1.7709472,7.6764233 1.6633243,7.458151 1.5731006,7.2972705 1.1960336,6.6249082 0.76868409,6.1184754 0.29105288,5.7779717 0.17592197,5.6958947 0.16392928,5.5637895 0.27541238,5.4766311 0.80430368,5.0631331 1.2914263,4.8144848 1.7367818,4.7307173 c 0.18065,-0.03398 0.4842937,-0.038433 0.6615856,0.010466 0.1266315,0.034915 0.2415736,0.091411 0.3448267,0.1694892 0.1470457,0.1111892 0.322079,0.360502 0.4033156,0.5258526 0.118443,0.2410788 0.22639,0.5549316 0.3238412,0.9415549 0.045018,0.1786009 0.1456014,0.1925852 0.2324298,0.029829 C 4.9149249,4.1358114 5.7691981,2.748585 6.3980962,1.9960453 7.0741846,1.1870355 7.5571515,0.8117207 7.9178456,0.6034739 c 0.7059303,-0.407569 1.694489,-0.1744714 2.2859644,0.069873 0.100143,0.04137 0.163348,0.1209682 0.16718,0.190685 0.0054,0.097947 -0.02446,0.1555617 -0.13106,0.2340979 C 8.6677287,2.2564509 7.5796377,3.4322886 6.6232281,4.6769206 5.4450607,6.2101383 4.3641614,8.2740244 3.249793,9.9604594 3.033759,10.287396 2.7806482,10.043043 2.6845012,9.7698167 2.6020982,9.5356481 2.5038939,9.3073592 2.4135824,9.0761101 Z"
       style="color:#000000;fill:#ffffff;stroke-width:1.06375;stroke-linecap:round;-inkscape-stroke:none" />
  </g>
</svg>
