<?xml version="1.0" encoding="UTF-8" standalone="no"?>
<!-- Created with Inkscape (http://www.inkscape.org/) -->

<svg
   width="12"
   height="12"
   viewBox="0 0 3.1749999 3.175"
   version="1.1"
   id="svg1"
   xmlns="http://www.w3.org/2000/svg"
   xmlns:svg="http://www.w3.org/2000/svg">
  <defs
     id="defs1" />
  <g
     id="layer1">
    <path
       id="path1-6"
       style="color:#000000;fill:#f8f8f8;fill-opacity:1;stroke:none;-inkscape-stroke:none"
       d="m 0.48954788,0.3972197 -0.0923282,0.0923282 a 0.2,0.2 90 0 0 0,0.28284272 L 1.1193016,1.4944725 a 0.13229167,0.13229167 90.000001 0 1 0,0.1870886 L 0.3972197,2.4036429 a 0.1998622,0.1998622 89.980256 0 0 9.743e-5,0.2827453 l 0.0921333,0.092006 A 0.2001379,0.2001379 179.98026 0 0 0.7723906,2.778297 L 1.4944725,2.0562152 a 0.13229167,0.13229167 8.980084e-7 0 1 0.1870886,0 L 2.4036429,2.778297 a 0.2,0.2 0 0 0 0.2828428,0 l 0.091811,-0.091811 a 0.2,0.2 90 0 0 0,-0.2828428 L 2.0562152,1.6815611 a 0.13229167,0.13229167 89.999999 0 1 0,-0.1870886 L 2.778297,0.7723906 a 0.2001379,0.2001379 90.019744 0 0 9.75e-5,-0.28294015 L 2.6863882,0.39731713 A 0.1998622,0.1998622 0.01974401 0 0 2.4036429,0.3972197 L 1.6815611,1.1193016 a 0.13229167,0.13229167 -180 0 1 -0.1870886,0 L 0.7723906,0.3972197 a 0.2,0.2 0 0 0 -0.28284272,0 z" />
  </g>
</svg>
