<?xml version="1.0" encoding="UTF-8" standalone="no"?>
<!-- Created with Inkscape (http://www.inkscape.org/) -->

<svg
   width="4.4271679mm"
   height="4.315733mm"
   viewBox="0 0 4.4271675 4.315733"
   version="1.1"
   id="svg1"
   xml:space="preserve"
   sodipodi:docname="down-arrow-light.svg"
   inkscape:version="1.3.2 (091e20e, 2023-11-25)"
   xmlns:inkscape="http://www.inkscape.org/namespaces/inkscape"
   xmlns:sodipodi="http://sodipodi.sourceforge.net/DTD/sodipodi-0.dtd"
   xmlns="http://www.w3.org/2000/svg"
   xmlns:svg="http://www.w3.org/2000/svg"><sodipodi:namedview
     id="namedview1"
     pagecolor="#505050"
     bordercolor="#eeeeee"
     borderopacity="1"
     inkscape:showpageshadow="0"
     inkscape:pageopacity="0"
     inkscape:pagecheckerboard="0"
     inkscape:deskcolor="#d1d1d1"
     inkscape:document-units="mm"
     inkscape:zoom="28.491907"
     inkscape:cx="8.827068"
     inkscape:cy="8.1426631"
     inkscape:window-width="1920"
     inkscape:window-height="982"
     inkscape:window-x="0"
     inkscape:window-y="238"
     inkscape:window-maximized="0"
     inkscape:current-layer="g2" /><defs
     id="defs1" /><g
     id="g8"
     transform="translate(1.126889,-0.65936836)"><g
       id="g2"
       transform="translate(0,-0.00335245)"><path
         style="color:#000000;fill:#ffffff;stroke-width:1.06375;stroke-linecap:round;-inkscape-stroke:none"
         d="M 1.0258168,3.4276453 0.14299547,2.5172663 C 0.08824177,2.4607913 -0.00577749,2.3657192 -0.017579,2.2900253 -0.026305,2.2336563 0.0540807,2.1869657 0.13372443,2.1869657 H 0.3289726 A 0.33489788,0.32656256 0 0 1 0.57237566,2.2891745 L 1.0399307,2.7715964 a 0.06756367,0.06588207 0 0 0 0.098164,0 L 1.6056498,2.2891744 A 0.33489788,0.32656256 0 0 1 1.8490529,2.1869656 h 0.1963389 c 0.07973,0 0.1660388,0.065728 0.1421958,0.1386676 -0.017778,0.054454 -0.097838,0.1352004 -0.1525576,0.1916543 l -0.8828434,0.910379 a 0.08699539,0.08483014 0 0 1 -0.1264134,0 z"
         id="path7" /></g></g></svg>
