<?xml version="1.0" encoding="UTF-8" standalone="no"?>
<!-- Created with Inkscape (http://www.inkscape.org/) -->

<svg
   width="12"
   height="12"
   viewBox="0 0 3.1749999 3.175"
   version="1.1"
   id="svg1"
   xmlns="http://www.w3.org/2000/svg"
   xmlns:svg="http://www.w3.org/2000/svg">
  <defs
     id="defs1" />
  <g
     id="layer2">
    <path
       style="color:#000000;fill:#f8f8f8;stroke:none;-inkscape-stroke:none;paint-order:stroke fill markers"
       d="M 0.34042968,0.54042968 V 2.6345703 a 0.2,0.2 45 0 0 0.2,0.2 H 2.6345703 a 0.2,0.2 135 0 0 0.2,-0.2 V 0.54042968 a 0.2,0.2 45 0 0 -0.2,-0.2 H 0.54042968 a 0.2,0.2 135 0 0 -0.2,0.2 z M 1.0020182,1.1534444 H 2.1729817 A 0.13229167,0.13229167 45 0 1 2.3052734,1.2857361 V 2.1729817 A 0.13229167,0.13229167 135 0 1 2.1729817,2.3052734 H 1.0020182 A 0.13229167,0.13229167 45 0 1 0.86972656,2.1729817 V 1.2857361 A 0.13229167,0.13229167 135 0 1 1.0020182,1.1534444 Z"
       id="rect18-3" />
  </g>
</svg>
