<?xml version="1.0" encoding="UTF-8" standalone="no"?>
<!-- Created with Inkscape (http://www.inkscape.org/) -->

<svg
   width="12"
   height="12"
   viewBox="0 0 3.1749999 3.175"
   version="1.1"
   id="svg1"
   xmlns="http://www.w3.org/2000/svg"
   xmlns:svg="http://www.w3.org/2000/svg">
  <defs
     id="defs1" />
  <g
     id="layer4">
    <path
       id="rect20-1-4"
       style="color:#000000;display:inline;fill:#f8f8f8;fill-opacity:1;stroke:none;-inkscape-stroke:none;paint-order:stroke fill markers"
       d="M 1.3570231,0.34054769 A 0.2,0.2 0 0 0 1.1570353,0.54053548 V 1.1580688 H 0.54001872 a 0.2,0.2 0 0 0 -0.1999878,0.1999878 v 1.2758912 a 0.2,0.2 0 0 0 0.1999878,0.1999877 H 1.8174601 A 0.2,0.2 0 0 0 2.0174479,2.6339478 V 2.0164144 H 2.6344645 A 0.2,0.2 0 0 0 2.8344523,1.8164266 V 0.54053548 A 0.2,0.2 0 0 0 2.6344645,0.34054769 Z M 1.7544149,0.95859782 H 2.2370728 A 0.13229167,0.13229167 0 0 1 2.3693644,1.0908895 V 1.4190348 A 0.13229167,0.13229167 0 0 1 2.2370728,1.5513265 H 2.0174479 V 1.3580566 A 0.2,0.2 0 0 0 1.8174601,1.1580688 H 1.6221232 V 1.0908895 A 0.13229167,0.13229167 0 0 1 1.7544149,0.95859782 Z M 0.93741048,1.7766357 H 1.4200684 A 0.13229167,0.13229167 0 0 1 1.55236,1.9089274 V 2.236556 A 0.13229167,0.13229167 0 0 1 1.4200684,2.3688477 H 0.93741048 A 0.13229167,0.13229167 0 0 1 0.80511882,2.236556 V 1.9089274 A 0.13229167,0.13229167 0 0 1 0.93741048,1.7766357 Z" />
  </g>
</svg>
