<?xml version="1.0" encoding="UTF-8" standalone="no"?>
<!-- Created with Inkscape (http://www.inkscape.org/) -->

<svg
   width="4.4271679mm"
   height="4.315733mm"
   viewBox="0 0 4.4271675 4.315733"
   version="1.1"
   id="svg1"
   xml:space="preserve"
   sodipodi:docname="up-arrow.svg"
   inkscape:version="1.3.2 (091e20e, 2023-11-25)"
   xmlns:inkscape="http://www.inkscape.org/namespaces/inkscape"
   xmlns:sodipodi="http://sodipodi.sourceforge.net/DTD/sodipodi-0.dtd"
   xmlns="http://www.w3.org/2000/svg"
   xmlns:svg="http://www.w3.org/2000/svg"><sodipodi:namedview
     id="namedview1"
     pagecolor="#505050"
     bordercolor="#eeeeee"
     borderopacity="1"
     inkscape:showpageshadow="0"
     inkscape:pageopacity="0"
     inkscape:pagecheckerboard="0"
     inkscape:deskcolor="#d1d1d1"
     inkscape:document-units="mm"
     inkscape:zoom="28.491907"
     inkscape:cx="8.827068"
     inkscape:cy="8.1426631"
     inkscape:window-width="1920"
     inkscape:window-height="982"
     inkscape:window-x="0"
     inkscape:window-y="238"
     inkscape:window-maximized="0"
     inkscape:current-layer="g2" /><defs
     id="defs1" /><g
     id="g8"
     transform="translate(1.126889,-0.65936836)"><g
       id="g2"
       transform="translate(0,-0.00335245)"><path
         style="color:#000000;fill:#000000;stroke-width:1.06375;stroke-linecap:round;-inkscape-stroke:none"
         d="m 1.0258168,2.2135292 -0.88282134,0.910379 c -0.0547537,0.056475 -0.14877296,0.1515471 -0.16057447,0.227241 -0.008726,0.056369 0.0716597,0.1030596 0.15130343,0.1030596 H 0.32897259 A 0.33489788,0.32656256 0 0 0 0.57237565,3.352 L 1.0399307,2.8695781 a 0.06756367,0.06588207 0 0 1 0.098164,0 l 0.4675551,0.482422 a 0.33489788,0.32656256 0 0 0 0.2434031,0.1022088 h 0.1963389 c 0.07973,0 0.1660388,-0.065728 0.1421958,-0.1386676 C 2.1698096,3.2610873 2.0897496,3.1803409 2.03503,3.123887 L 1.1521866,2.213508 a 0.08699539,0.08483014 0 0 0 -0.1264134,0 z"
         id="path7" /></g></g></svg>
